<svg xmlns="http://www.w3.org/2000/svg" viewBox="0 0 900 1200" role="img" aria-labelledby="title desc">
  <title id="title">Woman wearing saree side view</title>
  <desc id="desc">Elegant side pose illustration of a woman in a flowing saree.</desc>
  <defs>
    <linearGradient id="bg" x1="0" y1="0" x2="1" y2="1">
      <stop offset="0%" stop-color="#fdf4ff"/>
      <stop offset="100%" stop-color="#e9d5ff"/>
    </linearGradient>
    <linearGradient id="saree" x1="0" y1="0" x2="1" y2="1">
      <stop offset="0%" stop-color="#8b5cf6"/>
      <stop offset="100%" stop-color="#ec4899"/>
    </linearGradient>
  </defs>
  <rect width="900" height="1200" fill="url(#bg)"/>
  <path d="M552 190c42 0 76 35 76 79 0 30-17 58-42 73v63h-48v-63c-24-15-41-43-41-73 0-44 24-79 55-79Z" fill="#f1c9ab"/>
  <path d="M514 210c18-53 61-85 110-85 24 0 46 8 64 23-11-2-21-2-31 0-47 9-80 48-93 94-9-16-24-28-50-32Z" fill="#231815"/>
  <path d="M480 406c24-20 52-30 86-30 59 0 109 33 129 82l55 164-124 45-121-250-25-11Z" fill="#fde6d8"/>
  <path d="M410 467c50-10 104 0 153 33 74 50 130 135 168 257l-75 188H312l52-207 46-271Z" fill="url(#saree)"/>
  <path d="M454 503c24 8 53 25 88 54 52 42 94 88 126 136l-47 120c-41-100-100-190-177-270l10-40Z" fill="#fbcfe8" opacity=".84"/>
  <path d="M366 953h284" stroke="#ffffff" stroke-width="16" opacity=".78"/>
  <text x="78" y="1060" fill="#7e22ce" font-family="Georgia, serif" font-size="52" font-weight="700">Graceful Side Drape</text>
  <text x="78" y="1112" fill="#a21caf" font-family="Arial, sans-serif" font-size="26" letter-spacing="4">MOVEMENT AND FLOW</text>
</svg>
