<svg xmlns="http://www.w3.org/2000/svg" viewBox="0 0 900 1200" role="img" aria-labelledby="title desc">
  <title id="title">Moonlit Bloom Organza Saree</title>
  <desc id="desc">Blush organza saree illustration with floral mood.</desc>
  <defs>
    <linearGradient id="bg" x1="0" y1="0" x2="1" y2="1">
      <stop offset="0%" stop-color="#fff1f2"/>
      <stop offset="100%" stop-color="#fbcfe8"/>
    </linearGradient>
  </defs>
  <rect width="900" height="1200" fill="url(#bg)"/>
  <circle cx="690" cy="230" r="170" fill="#ffffff" opacity=".45"/>
  <path d="M180 930c80-210 180-360 302-444 61 34 112 84 154 148-148 85-262 184-456 296Z" fill="#f472b6" opacity=".35"/>
  <path d="M522 242c94 73 150 192 150 324 0 164-93 298-209 298s-209-134-209-298c0-132 56-251 150-324 31 34 45 92 59 145 14-53 28-111 59-145Z" fill="#ffffff" opacity=".82"/>
  <path d="M350 310c62 49 98 130 98 214 0 110-61 199-136 199s-136-89-136-199c0-84 36-165 98-214 20 22 29 61 38 96 9-35 18-74 38-96Z" fill="#f9a8d4" opacity=".55"/>
  <text x="82" y="1048" fill="#831843" font-family="Georgia, serif" font-size="54" font-weight="700">Moonlit Bloom</text>
  <text x="82" y="1102" fill="#9d174d" font-family="Arial, sans-serif" font-size="28" letter-spacing="4">FLORAL ORGANZA</text>
</svg>
