<svg xmlns="http://www.w3.org/2000/svg" viewBox="0 0 900 1200" role="img" aria-labelledby="title desc">
  <title id="title">Zari Mist Tissue Saree</title>
  <desc id="desc">Champagne tissue saree illustration with metallic shimmer.</desc>
  <defs>
    <linearGradient id="bg" x1="0" y1="0" x2="1" y2="1">
      <stop offset="0%" stop-color="#fef3c7"/>
      <stop offset="100%" stop-color="#fde68a"/>
    </linearGradient>
  </defs>
  <rect width="900" height="1200" fill="url(#bg)"/>
  <path d="M0 260h900" stroke="#fff7ed" stroke-width="16" opacity=".8"/>
  <path d="M0 340h900" stroke="#fffbeb" stroke-width="10" opacity=".8"/>
  <path d="M518 208c109 77 174 208 174 352 0 172-102 311-228 311s-228-139-228-311c0-144 65-275 174-352 31 38 44 101 54 157 10-56 23-119 54-157Z" fill="#fffdf6" opacity=".9"/>
  <path d="M300 282c182 118 316 301 393 548" stroke="#d97706" stroke-width="18" opacity=".35" fill="none"/>
  <path d="M222 470c164 100 282 250 340 448" stroke="#f59e0b" stroke-width="12" opacity=".28" fill="none"/>
  <text x="82" y="1048" fill="#78350f" font-family="Georgia, serif" font-size="54" font-weight="700">Zari Mist</text>
  <text x="82" y="1102" fill="#92400e" font-family="Arial, sans-serif" font-size="28" letter-spacing="4">TISSUE SHIMMER</text>
</svg>
