<svg xmlns="http://www.w3.org/2000/svg" viewBox="0 0 900 1200" role="img" aria-labelledby="title desc">
  <title id="title">Mehraab Banarasi Fusion Saree</title>
  <desc id="desc">Banarasi fusion saree illustration with rich jewel tones.</desc>
  <defs>
    <linearGradient id="bg" x1="0" y1="0" x2="1" y2="1">
      <stop offset="0%" stop-color="#ede9fe"/>
      <stop offset="100%" stop-color="#ddd6fe"/>
    </linearGradient>
  </defs>
  <rect width="900" height="1200" fill="url(#bg)"/>
  <path d="M468 206c107 73 171 197 171 341 0 172-98 313-219 313s-219-141-219-313c0-144 64-268 171-341 29 37 42 98 48 152 6-54 19-115 48-152Z" fill="#f5f3ff" opacity=".92"/>
  <path d="M298 375c56-72 132-108 228-108s172 36 228 108" stroke="#7c3aed" stroke-width="18" fill="none" opacity=".55"/>
  <path d="M264 505c70-89 155-133 262-133s192 44 262 133" stroke="#a855f7" stroke-width="12" fill="none" opacity=".45"/>
  <text x="82" y="1048" fill="#4c1d95" font-family="Georgia, serif" font-size="54" font-weight="700">Mehraab Banarasi</text>
  <text x="82" y="1102" fill="#5b21b6" font-family="Arial, sans-serif" font-size="28" letter-spacing="4">FUSION WEAVE</text>
</svg>
